<?xml version="1.0" encoding="utf-8"?>
<!-- Generator: Adobe Illustrator 19.2.1, SVG Export Plug-In . SVG Version: 6.00 Build 0)  -->
<svg version="1.1" id="Capa_1" xmlns="http://www.w3.org/2000/svg" xmlns:xlink="http://www.w3.org/1999/xlink" x="0px" y="0px"
	 viewBox="0 0 2148 512" style="enable-background:new 0 0 2148 512;" xml:space="preserve">
<style type="text/css">
	.st0{fill:#2ECC71;}
	.st1{fill:#F1C40F;}
	.st2{fill:#E74C3C;}
	.st3{fill:#3498DB;}
	.st4{fill:#9B59B6;}
	.st5{font-family:'Comfortaa';}
	.st6{font-size:317.0388px;}
</style>
<g>
	<path class="st0" d="M234.2,327c33.4,0,60.5-27.1,60.5-60.5c0-33.4-27.1-60.5-60.5-60.5c-33.4,0-60.5,27.1-60.5,60.5
		C173.7,300,200.8,327,234.2,327z"/>
	<path class="st0" d="M259.8,331.2h-51.3c-42.7,0-77.4,34.7-77.4,77.4v62.8l0.2,1l4.3,1.3c40.7,12.7,76.1,17,105.3,17
		c56.9,0,89.9-16.2,91.9-17.3l4-2h0.4v-62.8C337.3,365.9,302.5,331.2,259.8,331.2z"/>
	<path class="st1" d="M359.9,268.7H309c-0.6,20.4-9.2,38.7-23,51.9c37.9,11.3,65.7,46.5,65.7,88V428c50.3-1.9,79.2-16.1,81.1-17
		l4-2.1h0.4v-62.8C437.3,303.5,402.6,268.7,359.9,268.7z"/>
	<path class="st2" d="M459.6,207.9h-50.9c-0.6,20.4-9.2,38.7-23,51.9c37.9,11.3,65.7,46.5,65.7,88v19.3
		c50.3-1.8,79.2-16.1,81.1-17.1l4-2h0.4v-62.8C537,242.6,502.3,207.9,459.6,207.9z"/>
	<path class="st3" d="M182.4,320.6c-13.7-13.1-22.4-31.4-23-51.6c-1.9-0.1-3.8-0.3-5.7-0.3h-51.3c-42.7,0-77.4,34.7-77.4,77.4v62.8
		l0.2,1l4.3,1.3c32.7,10.2,61.9,14.9,87.2,16.4v-18.9C116.7,367.1,144.4,331.9,182.4,320.6z"/>
	<path class="st4" d="M262.7,197.3c0.7-14.3,5.6-27.5,13.5-38.5c-5.6-1.2-11.3-1.8-17.2-1.8h-55.7c-5.9,0-11.6,0.6-17.1,1.8
		c8.4,11.7,13.5,26,13.5,41.4c10.2-5.6,22-8.8,34.5-8.8C244.3,191.4,254,193.5,262.7,197.3z"/>
	<path class="st3" d="M128.1,264.6c11.8,0,22.8-3.5,32.2-9.3c3-19.3,13.3-36.2,28.1-47.7c0.1-1.1,0.2-2.3,0.2-3.4
		c0-33.4-27.1-60.5-60.5-60.5c-33.4,0-60.5,27.1-60.5,60.5C67.6,237.5,94.7,264.6,128.1,264.6z"/>
	<path class="st1" d="M273.8,203.2c19.1,12,32.4,32.2,34.9,55.7c7.8,3.6,16.4,5.7,25.5,5.7c33.4,0,60.5-27.1,60.5-60.5
		c0-33.4-27.1-60.5-60.5-60.5C301.1,143.7,274.3,170.3,273.8,203.2z"/>
	<path class="st2" d="M408.4,198c7.8,3.6,16.4,5.7,25.5,5.7c33.4,0,60.5-27.1,60.5-60.5c0-33.4-27.1-60.5-60.5-60.5
		c-33.1,0-59.9,26.6-60.4,59.5C392.6,154.3,405.9,174.6,408.4,198z"/>
	<ellipse class="st4" cx="231.2" cy="87" rx="65.6" ry="65.6"/>
</g>
<text transform="matrix(1 0 0 1 583.3047 361.5293)"><tspan x="0" y="0" class="st2 st5 st6">S</tspan><tspan x="164.1" y="0" class="st3 st5 st6">INDICATE</tspan></text>
</svg>
